<svg width="162" height="48" viewBox="0 0 162 48" fill="none" xmlns="http://www.w3.org/2000/svg">
<path d="M13.7582 11.2204C17.7944 11.2204 20.9192 12.3401 23.1326 14.5796C25.346 16.819 26.4527 19.9959 26.4527 24.1102C26.4527 28.2245 25.346 31.4014 23.1326 33.6408C20.9192 35.8803 17.7944 37 13.7582 37H3.79791V11.2204H13.7582ZM13.4848 32.7034C15.9326 32.7034 17.7684 31.9743 18.9923 30.516C20.2422 29.0318 20.8671 26.8965 20.8671 24.1102C20.8671 21.3239 20.2422 19.2017 18.9923 17.7434C17.7684 16.2591 15.9326 15.517 13.4848 15.517H9.18819V32.7034H13.4848ZM33.9062 14.6577C31.6928 14.6577 30.5861 13.7072 30.5861 11.8063C30.5861 9.87934 31.6928 8.91586 33.9062 8.91586C36.1196 8.91586 37.2263 9.87934 37.2263 11.8063C37.2263 13.7072 36.1196 14.6577 33.9062 14.6577ZM36.5622 17.47V37H31.211V17.47H36.5622ZM53.8356 33.3284C55.9448 33.3284 57.5723 33.7841 58.7181 34.6955C59.8639 35.6069 60.4367 36.8828 60.4367 38.5233C60.4367 40.0337 60.0071 41.2966 59.1478 42.3122C58.2884 43.3277 57.0776 44.0959 55.5152 44.6167C53.9788 45.1375 52.1951 45.3979 50.164 45.3979C46.8048 45.3979 44.344 44.9292 42.7816 43.9917C41.2453 43.0543 40.4771 41.8304 40.4771 40.3201C40.4771 39.4347 40.7505 38.6535 41.2973 37.9765C41.8702 37.3255 42.7816 36.8698 44.0315 36.6094C42.2869 35.9584 41.4145 34.7345 41.4145 32.9378C41.4145 32.0524 41.6749 31.2712 42.1957 30.5942C42.7426 29.9171 43.4847 29.4093 44.4221 29.0708C42.365 27.9251 41.3364 26.1413 41.3364 23.7196C41.3364 21.6624 42.1306 20.048 43.7191 18.8762C45.3075 17.6783 47.4818 17.0794 50.2421 17.0794C51.8045 17.0794 53.2106 17.2877 54.4606 17.7044C54.6428 16.3503 55.1897 15.2045 56.1011 14.2671C57.0125 13.3036 58.2494 12.8219 59.8118 12.8219C59.8639 12.8219 59.929 12.8219 60.0071 12.8219C60.0852 12.8219 60.1633 12.8219 60.2414 12.8219L60.8664 16.6497C60.6581 16.6237 60.4237 16.6107 60.1633 16.6107C59.1738 16.6107 58.3796 16.806 57.7807 17.1966C57.1817 17.5611 56.8042 18.095 56.6479 18.798C58.3145 19.9698 59.1478 21.6104 59.1478 23.7196C59.1478 25.7507 58.3405 27.3652 56.726 28.563C55.1376 29.7348 52.9763 30.3207 50.2421 30.3207C49.0442 30.3207 47.9506 30.2166 46.961 30.0083C46.3621 30.1645 45.9325 30.3989 45.6721 30.7113C45.4377 30.9978 45.3205 31.3233 45.3205 31.6878C45.3205 32.7815 46.1538 33.3284 47.8204 33.3284H53.8356ZM50.2421 20.4386C49.2005 20.4386 48.3412 20.725 47.6641 21.2979C46.9871 21.8708 46.6486 22.665 46.6486 23.6805C46.6486 24.6961 46.9871 25.5033 47.6641 26.1023C48.3412 26.6751 49.2005 26.9616 50.2421 26.9616C51.2576 26.9616 52.1039 26.6751 52.781 26.1023C53.458 25.5033 53.7965 24.6961 53.7965 23.6805C53.7965 22.665 53.458 21.8708 52.781 21.2979C52.1039 20.725 51.2576 20.4386 50.2421 20.4386ZM50.203 41.7263C52.2081 41.7263 53.6924 41.4789 54.6559 40.9841C55.6454 40.5154 56.1401 39.9425 56.1401 39.2655C56.1401 38.7707 55.9448 38.3671 55.5542 38.0546C55.1636 37.7682 54.4606 37.625 53.445 37.625H46.8439C46.2189 37.625 45.6981 37.7812 45.2815 38.0937C44.8909 38.4322 44.6956 38.8619 44.6956 39.3827C44.6956 40.1118 45.1773 40.6847 46.1408 41.1013C47.1303 41.5179 48.4844 41.7263 50.203 41.7263ZM66.3672 14.6577C64.1538 14.6577 63.0471 13.7072 63.0471 11.8063C63.0471 9.87934 64.1538 8.91586 66.3672 8.91586C68.5806 8.91586 69.6873 9.87934 69.6873 11.8063C69.6873 13.7072 68.5806 14.6577 66.3672 14.6577ZM69.0232 17.47V37H63.672V17.47H69.0232Z" fill="#FF5300"/>
<path d="M83.7577 37.3906C80.685 37.3906 78.2242 36.5052 76.3754 34.7345C74.5265 32.9378 73.6021 30.4379 73.6021 27.235C73.6021 25.0997 74.0187 23.2769 74.852 21.7666C75.6853 20.2563 76.8441 19.0975 78.3284 18.2903C79.8387 17.483 81.5573 17.0794 83.4843 17.0794C85.4633 17.0794 87.1429 17.483 88.523 18.2903C89.9031 19.0715 90.9578 20.1521 91.6869 21.5322C92.416 22.8863 92.7806 24.4357 92.7806 26.1804C92.7806 26.7012 92.7675 27.1959 92.7415 27.6647C92.7155 28.1334 92.6764 28.55 92.6243 28.9146H78.8361C79.0445 30.4249 79.5653 31.5576 80.3985 32.3128C81.2579 33.0419 82.3646 33.4065 83.7186 33.4065C84.8644 33.4065 85.7888 33.1851 86.4919 32.7425C87.195 32.2998 87.7418 31.6878 88.1324 30.9066L92.39 32.5472C91.765 34.0835 90.6713 35.2814 89.1089 36.1407C87.5465 36.974 85.7628 37.3906 83.7577 37.3906ZM83.4452 21.0245C80.9193 21.0245 79.396 22.4176 78.8752 25.2039H87.6637C87.5075 23.8498 87.0648 22.8212 86.3357 22.1181C85.6326 21.389 84.6691 21.0245 83.4452 21.0245ZM97.3155 37V17.47H102.12L102.315 21.1416C102.914 19.7876 103.786 18.772 104.932 18.095C106.104 17.4179 107.445 17.0794 108.955 17.0794C110.986 17.0794 112.666 17.6783 113.994 18.8762C115.322 20.048 115.986 21.8187 115.986 24.1883V37H110.635V25.7117C110.635 24.0451 110.296 22.8993 109.619 22.2744C108.968 21.6234 108.135 21.2979 107.12 21.2979C106.39 21.2979 105.674 21.4802 104.971 21.8447C104.294 22.1832 103.734 22.7431 103.292 23.5243C102.875 24.3055 102.667 25.3471 102.667 26.6491V37H97.3155ZM130.366 17.0794C132.97 17.0794 134.988 17.6393 136.42 18.759C137.878 19.8787 138.842 21.2328 139.31 22.8212L134.311 24.618C133.79 22.2483 132.501 21.0635 130.444 21.0635C128.96 21.0635 127.801 21.5843 126.968 22.6259C126.16 23.6675 125.757 25.2169 125.757 27.2741C125.757 29.3573 126.173 30.9066 127.007 31.9222C127.866 32.9117 129.025 33.4065 130.483 33.4065C132.748 33.4065 134.102 32.2477 134.545 29.9301L139.389 31.4925C138.946 33.2372 137.956 34.6564 136.42 35.7501C134.91 36.8438 132.944 37.3906 130.522 37.3906C128.491 37.3906 126.707 36.987 125.171 36.1797C123.66 35.3725 122.489 34.2137 121.655 32.7034C120.822 31.1931 120.405 29.3703 120.405 27.235C120.405 25.0997 120.822 23.2769 121.655 21.7666C122.515 20.2563 123.686 19.0975 125.171 18.2903C126.681 17.483 128.413 17.0794 130.366 17.0794ZM161.409 17.47L153.519 38.2109C152.894 39.9816 152.191 41.3877 151.41 42.4293C150.654 43.497 149.769 44.2521 148.754 44.6948C147.764 45.1635 146.579 45.3979 145.199 45.3979C144.184 45.3979 143.246 45.2807 142.387 45.0464C141.553 44.812 140.824 44.4865 140.199 44.0699L141.332 40.2029C142.244 40.932 143.389 41.2966 144.769 41.2966C145.525 41.2966 146.163 41.1404 146.683 40.8279C147.204 40.5154 147.647 39.8904 148.011 38.953L148.675 37.2734L146.527 32.1956L140.551 17.47H146.488L150.199 29.188L151.214 33.094L152.425 28.9536L155.98 17.47H161.409Z" fill="#373737"/>
</svg>
