<svg width="159" height="38" viewBox="0 0 159 38" fill="none" xmlns="http://www.w3.org/2000/svg">
<path d="M10.7391 3.2204C14.7753 3.2204 17.9001 4.34012 20.1135 6.57956C22.3269 8.79296 23.4336 11.9698 23.4336 16.1102C23.4336 20.2245 22.3269 23.4014 20.1135 25.6408C17.9001 27.8803 14.7753 29 10.7391 29H0.778838V3.2204H10.7391ZM10.4657 24.7034C12.9135 24.7034 14.7493 23.9743 15.9732 22.516C17.2231 21.0318 17.8481 18.8965 17.8481 16.1102C17.8481 13.3239 17.2231 11.2017 15.9732 9.74342C14.7493 8.25914 12.9135 7.517 10.4657 7.517H6.16912V24.7034H10.4657ZM30.8871 6.65768C29.7674 6.65768 28.9341 6.42332 28.3872 5.9546C27.8404 5.45984 27.567 4.74374 27.567 3.8063C27.567 2.84282 27.8404 2.12672 28.3872 1.658C28.9341 1.16324 29.7674 0.915857 30.8871 0.915857C32.0068 0.915857 32.8401 1.16324 33.3869 1.658C33.9338 2.12672 34.2072 2.84282 34.2072 3.8063C34.2072 4.74374 33.9338 5.45984 33.3869 5.9546C32.8401 6.42332 32.0068 6.65768 30.8871 6.65768ZM33.5432 9.47V29H28.1919V9.47H33.5432ZM57.2224 4.82186L57.8473 8.64974C57.7432 8.64974 57.626 8.64974 57.4958 8.64974C57.3916 8.6237 57.2745 8.61068 57.1443 8.61068C55.9464 8.61068 55.048 8.8841 54.4491 9.43094C53.8502 9.95174 53.5507 10.6809 53.5507 11.6183L51.3634 10.7199C51.3634 9.67832 51.5717 8.71484 51.9883 7.82948C52.405 6.91808 53.0169 6.18896 53.8241 5.64212C54.6574 5.09528 55.647 4.82186 56.7927 4.82186C56.8448 4.82186 56.9099 4.82186 56.988 4.82186C57.0661 4.82186 57.1443 4.82186 57.2224 4.82186ZM50.8165 25.3284C52.9258 25.3284 54.5533 25.7841 55.699 26.6955C56.8448 27.6069 57.4177 28.8828 57.4177 30.5233C57.4177 32.0076 56.988 33.2575 56.1287 34.2731C55.2694 35.3147 54.0585 36.0959 52.4961 36.6167C50.9598 37.1375 49.176 37.3979 47.1449 37.3979C43.7857 37.3979 41.3249 36.9292 39.7625 35.9917C38.2262 35.0543 37.458 33.8304 37.458 32.3201C37.458 31.2525 37.8616 30.3541 38.6689 29.625C39.5021 28.8958 40.8692 28.4922 42.7702 28.4141L42.5749 29.0391C41.2208 28.8047 40.1792 28.362 39.4501 27.711C38.747 27.034 38.3954 26.1096 38.3954 24.9378C38.3954 23.7399 38.8511 22.7634 39.7625 22.0083C40.7 21.2271 41.9629 20.7714 43.5514 20.6412L45.895 21.7348H45.3481C44.2284 21.813 43.4342 22.0473 42.9655 22.4379C42.5228 22.8025 42.3014 23.2191 42.3014 23.6878C42.3014 24.2347 42.5098 24.6513 42.9264 24.9378C43.3691 25.1982 43.994 25.3284 44.8013 25.3284H50.8165ZM47.184 33.7263C48.538 33.7263 49.6447 33.6091 50.5041 33.3747C51.3894 33.1404 52.0404 32.8409 52.4571 32.4763C52.8997 32.1118 53.1211 31.7082 53.1211 31.2655C53.1211 30.7707 52.9258 30.3671 52.5352 30.0546C52.1446 29.7682 51.4415 29.625 50.4259 29.625H43.8248C43.1998 29.625 42.679 29.7812 42.2624 30.0937C41.8718 30.4062 41.6765 30.8358 41.6765 31.3827C41.6765 32.1118 42.1582 32.6847 43.1217 33.1013C44.1112 33.5179 45.4653 33.7263 47.184 33.7263ZM47.223 9.0794C49.0458 9.0794 50.6212 9.35282 51.9493 9.89966C53.3034 10.4205 54.3319 11.1756 55.035 12.1651C55.7641 13.1547 56.1287 14.3395 56.1287 15.7196C56.1287 17.0737 55.7641 18.2455 55.035 19.235C54.3319 20.2245 53.3034 20.9927 51.9493 21.5395C50.6212 22.0603 49.0458 22.3207 47.223 22.3207C44.3326 22.3207 42.1192 21.7348 40.5828 20.563C39.0725 19.3652 38.3173 17.7507 38.3173 15.7196C38.3173 14.3395 38.6689 13.1547 39.3719 12.1651C40.1011 11.1756 41.1296 10.4205 42.4577 9.89966C43.7857 9.35282 45.3742 9.0794 47.223 9.0794ZM47.223 12.4386C46.1814 12.4386 45.3221 12.725 44.645 13.2979C43.968 13.8708 43.6295 14.665 43.6295 15.6805C43.6295 16.6961 43.968 17.5033 44.645 18.1023C45.3221 18.6751 46.1814 18.9616 47.223 18.9616C48.2646 18.9616 49.1109 18.6751 49.7619 18.1023C50.439 17.5033 50.7775 16.6961 50.7775 15.6805C50.7775 14.665 50.439 13.8708 49.7619 13.2979C49.1109 12.725 48.2646 12.4386 47.223 12.4386ZM63.3481 6.65768C62.2284 6.65768 61.3951 6.42332 60.8482 5.9546C60.3014 5.45984 60.028 4.74374 60.028 3.8063C60.028 2.84282 60.3014 2.12672 60.8482 1.658C61.3951 1.16324 62.2284 0.915857 63.3481 0.915857C64.4678 0.915857 65.3011 1.16324 65.8479 1.658C66.3948 2.12672 66.6682 2.84282 66.6682 3.8063C66.6682 4.74374 66.3948 5.45984 65.8479 5.9546C65.3011 6.42332 64.4678 6.65768 63.3481 6.65768ZM66.0042 9.47V29H60.6529V9.47H66.0042ZM80.7386 29.3906C78.6815 29.3906 76.8847 28.987 75.3483 28.1797C73.838 27.3725 72.6662 26.2137 71.8329 24.7034C70.9997 23.1931 70.583 21.3703 70.583 19.235C70.583 17.0997 70.9997 15.2769 71.8329 13.7666C72.6662 12.2563 73.825 11.0975 75.3093 10.2903C76.8196 9.48302 78.5382 9.0794 80.4652 9.0794C82.4442 9.0794 84.1238 9.48302 85.5039 10.2903C86.8841 11.0715 87.9387 12.1521 88.6678 13.5322C89.3969 14.8863 89.7615 16.4357 89.7615 18.1804C89.7615 18.7012 89.7485 19.1959 89.7224 19.6647C89.6964 20.1334 89.6573 20.55 89.6052 20.9146H74.0203V17.2039H87.2616L84.6837 18.1413C84.6837 16.5008 84.3061 15.2379 83.5509 14.3525C82.8218 13.4671 81.7802 13.0245 80.4261 13.0245C79.4366 13.0245 78.5773 13.2588 77.8482 13.7275C77.1451 14.1963 76.6113 14.8993 76.2467 15.8368C75.8822 16.7482 75.6999 17.907 75.6999 19.3131C75.6999 20.6932 75.8952 21.839 76.2858 22.7504C76.7024 23.6358 77.2753 24.2998 78.0044 24.7425C78.7596 25.1851 79.658 25.4065 80.6996 25.4065C81.8453 25.4065 82.7697 25.1851 83.4728 24.7425C84.1759 24.2998 84.7227 23.6878 85.1133 22.9066L89.3709 24.5472C88.9542 25.5627 88.3163 26.4351 87.4569 27.1642C86.6237 27.8933 85.6211 28.4532 84.4493 28.8438C83.3036 29.2083 82.0667 29.3906 80.7386 29.3906Z" fill="#FF5300"/>
<path d="M94.2964 29V9.47H99.1008L99.4133 15.329L98.7493 14.704C99.0617 13.4281 99.5565 12.3735 100.234 11.5402C100.911 10.7069 101.731 10.095 102.694 9.70436C103.684 9.28772 104.764 9.0794 105.936 9.0794C107.29 9.0794 108.488 9.3398 109.53 9.8606C110.597 10.3814 111.431 11.1756 112.03 12.2433C112.655 13.2849 112.967 14.5999 112.967 16.1883V29H107.616V17.7117C107.616 16.0451 107.29 14.8993 106.639 14.2744C105.988 13.6234 105.142 13.2979 104.1 13.2979C103.371 13.2979 102.655 13.4802 101.952 13.8447C101.275 14.1832 100.715 14.7431 100.273 15.5243C99.856 16.3055 99.6476 17.3471 99.6476 18.6491V29H94.2964ZM127.347 9.0794C129.091 9.0794 130.563 9.3398 131.76 9.8606C132.984 10.3554 133.961 11.0454 134.69 11.9308C135.445 12.7901 135.979 13.7536 136.291 14.8212L131.292 16.618C131.031 15.4462 130.589 14.5608 129.964 13.9619C129.339 13.363 128.492 13.0635 127.425 13.0635C126.435 13.0635 125.589 13.2979 124.886 13.7666C124.183 14.2093 123.649 14.8993 123.284 15.8368C122.92 16.7482 122.738 17.8939 122.738 19.2741C122.738 20.6542 122.92 21.7999 123.284 22.7113C123.675 23.6227 124.222 24.2998 124.925 24.7425C125.654 25.1851 126.5 25.4065 127.464 25.4065C128.245 25.4065 128.909 25.2763 129.456 25.0159C130.003 24.7294 130.445 24.3258 130.784 23.805C131.149 23.2842 131.396 22.6593 131.526 21.9301L136.37 23.4925C136.083 24.6643 135.549 25.6929 134.768 26.5783C133.987 27.4636 132.984 28.1537 131.76 28.6485C130.537 29.1432 129.117 29.3906 127.503 29.3906C125.498 29.3906 123.727 28.987 122.191 28.1797C120.654 27.3725 119.47 26.2137 118.636 24.7034C117.803 23.1931 117.386 21.3703 117.386 19.235C117.386 17.0997 117.803 15.2769 118.636 13.7666C119.47 12.2563 120.641 11.0975 122.152 10.2903C123.662 9.48302 125.394 9.0794 127.347 9.0794ZM158.428 9.47L150.538 30.2109C149.913 31.9816 149.21 33.3877 148.429 34.4293C147.674 35.4709 146.788 36.2261 145.773 36.6948C144.783 37.1635 143.598 37.3979 142.218 37.3979C141.203 37.3979 140.265 37.2677 139.406 37.0073C138.573 36.7729 137.843 36.4605 137.218 36.0699L138.351 32.2029C138.846 32.5935 139.367 32.8669 139.914 33.0232C140.46 33.2055 141.085 33.2966 141.788 33.2966C142.518 33.2966 143.143 33.1404 143.663 32.8279C144.21 32.5154 144.666 31.8904 145.03 30.953L145.694 29.2734L143.546 24.1956L137.57 9.47H143.507L147.218 21.188L148.233 25.094L149.444 20.9536L152.999 9.47H158.428Z" fill="#FFF7F4"/>
</svg>
