<svg width="75" height="75" viewBox="0 0 75 75" fill="none" xmlns="http://www.w3.org/2000/svg">
<circle cx="37.5" cy="37.5" r="37.5" fill="#FF5300"/>
<path d="M41.575 27.5C43.0401 27.7858 44.3866 28.5024 45.4421 29.5579C46.4976 30.6134 47.2142 31.9599 47.5 33.425L41.575 27.5ZM41.575 21.5C44.6189 21.8382 47.4574 23.2013 49.6244 25.3655C51.7914 27.5298 53.158 30.3665 53.5 33.41L41.575 21.5ZM52 45.38V49.88C52.0017 50.2978 51.9161 50.7113 51.7488 51.094C51.5814 51.4768 51.336 51.8204 51.0281 52.1028C50.7203 52.3852 50.3569 52.6002 49.9611 52.7341C49.5654 52.8679 49.1461 52.9176 48.73 52.88C44.1143 52.3785 39.6805 50.8012 35.785 48.275C32.1608 45.972 29.088 42.8993 26.785 39.275C24.25 35.3618 22.6724 30.9065 22.18 26.27C22.1425 25.8552 22.1918 25.4371 22.3248 25.0424C22.4577 24.6477 22.6714 24.285 22.9522 23.9774C23.233 23.6698 23.5747 23.4241 23.9557 23.2558C24.3367 23.0875 24.7485 23.0004 25.165 23H29.665C30.393 22.9928 31.0987 23.2506 31.6507 23.7253C32.2026 24.2 32.5631 24.8592 32.665 25.58C32.855 27.0201 33.2072 28.4341 33.715 29.795C33.9168 30.3319 33.9605 30.9154 33.8409 31.4763C33.7212 32.0373 33.4433 32.5522 33.04 32.96L31.135 34.865C33.2704 38.6203 36.3797 41.7297 40.135 43.865L42.04 41.96C42.4479 41.5567 42.9628 41.2788 43.5237 41.1591C44.0846 41.0395 44.6681 41.0832 45.205 41.285C46.5659 41.7928 47.9799 42.1451 49.42 42.335C50.1487 42.4378 50.8141 42.8048 51.2898 43.3662C51.7655 43.9277 52.0183 44.6444 52 45.38Z" stroke="white" stroke-width="2" stroke-linecap="round" stroke-linejoin="round"/>
</svg>
